<?xml version="1.0" standalone="no"?>
<!DOCTYPE svg PUBLIC "-//W3C//DTD SVG 20010904//EN"
 "http://www.w3.org/TR/2001/REC-SVG-20010904/DTD/svg10.dtd">
<svg version="1.0" xmlns="http://www.w3.org/2000/svg"
 width="800.000000pt" height="800.000000pt" viewBox="0 0 800.000000 800.000000"
 preserveAspectRatio="xMidYMid meet">

<g transform="translate(0.000000,800.000000) scale(0.100000,-0.100000)"
fill="#000000" stroke="none">
<path d="M3840 7154 c-125 -9 -345 -36 -442 -55 -621 -120 -1177 -417 -1629
-868 -512 -512 -816 -1141 -905 -1871 -23 -187 -23 -520 0 -714 125 -1068 766
-1985 1724 -2465 381 -191 737 -287 1208 -327 188 -15 212 -15 405 1 226 19
374 41 554 85 354 85 723 251 1029 462 292 201 598 505 802 798 295 421 491
936 543 1425 30 282 33 379 16 582 -39 478 -139 839 -342 1235 -219 429 -544
812 -933 1099 -442 326 -969 534 -1510 594 -138 15 -422 26 -520 19z m-1025
-1306 c186 -62 320 -223 343 -417 19 -163 -27 -309 -135 -422 -102 -108 -224
-159 -375 -159 -386 0 -629 403 -453 751 32 62 118 155 180 194 132 83 290
102 440 53z m2415 -1204 c306 -84 490 -292 575 -649 48 -199 55 -336 55 -1087
0 -668 -1 -694 -19 -722 -36 -55 -39 -55 -394 -56 l-327 0 -38 34 -37 34 -6
709 c-4 621 -7 716 -22 771 -56 207 -184 312 -382 312 -175 0 -286 -76 -372
-253 -57 -116 -57 -116 -63 -855 l-5 -684 -37 -34 -38 -34 -325 0 -325 0 -32
29 -33 29 0 1196 0 1196 28 27 27 28 330 3 329 3 38 -35 38 -34 3 -110 4 -110
48 58 c98 117 207 186 366 230 113 32 191 39 364 35 128 -4 172 -9 250 -31z
m-2250 -17 c13 -7 35 -28 47 -46 l23 -34 0 -1159 c0 -1264 3 -1190 -56 -1237
-26 -20 -37 -21 -338 -21 -291 0 -313 1 -343 20 -67 41 -63 -41 -63 1235 0
1276 -4 1194 63 1235 30 19 52 20 337 20 224 0 312 -4 330 -13z"/>
</g>
</svg>
